<?xml version="1.0" encoding="UTF-8" standalone="no"?>
<svg
   width="700pt"
   height="700pt"
   version="1.1"
   viewBox="0 0 700 700"
   id="svg10"
   sodipodi:docname="noun-delete-5718398.svg"
   inkscape:version="1.1.2 (0a00cf5339, 2022-02-04)"
   xmlns:inkscape="http://www.inkscape.org/namespaces/inkscape"
   xmlns:sodipodi="http://sodipodi.sourceforge.net/DTD/sodipodi-0.dtd"
   xmlns="http://www.w3.org/2000/svg"
   xmlns:svg="http://www.w3.org/2000/svg">
  <defs
     id="defs14" />
  <sodipodi:namedview
     id="namedview12"
     pagecolor="#ffffff"
     bordercolor="#000000"
     borderopacity="0.25"
     inkscape:pageshadow="2"
     inkscape:pageopacity="0.0"
     inkscape:pagecheckerboard="0"
     inkscape:document-units="pt"
     showgrid="false"
     inkscape:zoom="0.57"
     inkscape:cx="402.63158"
     inkscape:cy="571.92982"
     inkscape:window-width="1366"
     inkscape:window-height="740"
     inkscape:window-x="0"
     inkscape:window-y="28"
     inkscape:window-maximized="1"
     inkscape:current-layer="svg10" />
  <g
     id="g8"
     transform="translate(0.005093,70.001)"
     style="fill:#ffffff">
    <path
       d="m 297.01,265.63 c -8.6992,0 -15.75,7.0508 -15.75,15.75 v 143.97 c 0,8.6992 7.0508,15.75 15.75,15.75 8.6992,0 15.75,-7.0508 15.75,-15.75 V 281.38 c 0,-8.6992 -7.0547,-15.75 -15.75,-15.75 z"
       id="path2"
       style="fill:#ffffff" />
    <path
       d="m 402.99,265.63 c -8.6992,0 -15.75,7.0508 -15.75,15.75 v 143.97 c 0,8.6992 7.0508,15.75 15.75,15.75 8.6992,0 15.75,-7.0508 15.75,-15.75 V 281.38 c 0.0195,-8.6992 -7.0508,-15.75 -15.75,-15.75 z"
       id="path4"
       style="fill:#ffffff" />
    <path
       d="m 523.77,111.86 h -74.254 l 0.004,-28.418 c 0,-25.742 -20.949,-46.691 -46.691,-46.691 h -105.65 c -25.742,0 -46.691,20.949 -46.691,46.691 v 28.422 l -74.266,-0.004 c -21.77,0 -39.496,17.711 -39.496,39.48 v 24.148 c 0,21.438 17.203,38.852 38.5,39.391 v 248.22 c 0,33.164 26.984,60.148 60.164,60.148 H 464.6 c 33.18,0 60.164,-26.984 60.164,-60.148 v -248.21 c 21.297,-0.54297 38.5,-17.953 38.5,-39.391 V 151.35 c 0,-21.773 -17.727,-39.484 -39.5,-39.484 z M 281.99,83.442 c 0,-8.3828 6.8086,-15.191 15.172,-15.191 h 105.65 c 8.3828,0 15.172,6.8242 15.172,15.191 v 28.422 H 281.994 Z M 464.6,491.752 H 235.38 c -15.785,0 -28.648,-12.844 -28.648,-28.648 l 0.004,-248.11 h 286.49 v 248.11 c 0.0156,15.805 -12.848,28.648 -28.629,28.648 z m 67.145,-316.26 c 0,4.3906 -3.5703,7.9961 -7.9805,7.9961 l -347.55,0.004 c -4.4102,0 -7.9805,-3.5859 -7.9805,-7.9961 v -24.148 c 0,-4.3906 3.5703,-7.9961 7.9805,-7.9961 l 347.55,-0.004 c 4.4102,0 7.9805,3.5859 7.9805,7.9961 z"
       id="path6"
       style="fill:#ffffff" />
  </g>
</svg>
